<?xml version="1.0" standalone="no"?>
<!DOCTYPE svg PUBLIC "-//W3C//DTD SVG 20010904//EN"
 "http://www.w3.org/TR/2001/REC-SVG-20010904/DTD/svg10.dtd">
<svg version="1.0" xmlns="http://www.w3.org/2000/svg"
 width="360.000000pt" height="360.000000pt" viewBox="0 0 360.000000 360.000000"
 preserveAspectRatio="xMidYMid meet">
<metadata>
Created by potrace 1.16, written by Peter Selinger 2001-2019
</metadata>
<g transform="translate(0.000000,360.000000) scale(0.100000,-0.100000)"
fill="#000000" stroke="none">
<path d="M1565 3124 c-120 -22 -318 -92 -415 -148 -245 -140 -436 -341 -555
-581 -103 -209 -138 -364 -138 -605 0 -182 18 -286 75 -449 74 -211 221 -425
401 -579 169 -146 408 -256 641 -297 114 -19 347 -20 457 0 276 48 516 173
719 375 251 248 380 541 396 895 22 490 -212 938 -632 1207 -125 80 -323 155
-483 182 -117 20 -355 20 -466 0z m483 -118 c424 -93 755 -377 913 -784 71
-185 94 -457 55 -655 -101 -518 -512 -914 -1031 -994 -118 -18 -323 -13 -430
11 -370 80 -673 309 -844 636 -104 198 -141 351 -141 581 0 206 41 375 136
559 69 133 129 213 241 321 197 189 429 302 708 343 64 9 323 -3 393 -18z"/>
<path d="M1315 2482 c-43 -2 -85 -8 -92 -14 -10 -8 -13 -142 -13 -673 0 -604
1 -664 17 -676 12 -10 60 -15 182 -17 91 -2 180 -1 198 3 67 12 63 -31 63 689
0 621 -1 654 -18 670 -15 13 -43 17 -138 19 -65 1 -155 1 -199 -1z m237 -659
c2 -302 2 -560 0 -575 l-3 -28 -115 0 -114 0 0 575 0 575 115 0 115 0 2 -547z"/>
<path d="M1969 2478 c-11 -4 -23 -17 -27 -28 -4 -11 -7 -310 -7 -665 1 -598 2
-647 18 -663 15 -14 42 -17 185 -20 91 -2 181 -1 199 3 67 12 63 -31 63 685 0
602 -1 649 -17 669 -17 20 -27 22 -206 24 -104 1 -197 -1 -208 -5z m311 -683
l0 -575 -115 0 -115 0 0 575 0 575 115 0 115 0 0 -575z"/>
</g>
</svg>
