<?xml version="1.0" standalone="no"?>
<!DOCTYPE svg PUBLIC "-//W3C//DTD SVG 20010904//EN"
 "http://www.w3.org/TR/2001/REC-SVG-20010904/DTD/svg10.dtd">
<svg version="1.0" xmlns="http://www.w3.org/2000/svg"
 width="260.000000pt" height="260.000000pt" viewBox="0 0 260.000000 260.000000"
 preserveAspectRatio="xMidYMid meet">
<metadata>
Created by potrace 1.16, written by Peter Selinger 2001-2019
</metadata>
<g transform="translate(0.000000,260.000000) scale(0.100000,-0.100000)"
fill="#000000" stroke="none">
<path d="M1113 2585 c-427 -67 -786 -328 -973 -710 -183 -372 -185 -769 -6
-1140 129 -266 327 -465 591 -595 376 -185 774 -185 1150 0 385 189 645 548
710 980 61 399 -91 834 -388 1117 -290 275 -702 408 -1084 348z m333 -256
c487 -68 863 -476 891 -969 32 -575 -404 -1064 -977 -1097 -575 -32 -1064 404
-1097 977 -30 542 364 1020 902 1093 63 8 207 7 281 -4z"/>
<path d="M997 1742 c-15 -17 -17 -62 -17 -440 0 -246 4 -431 10 -446 12 -33
53 -43 94 -23 69 33 682 390 704 410 36 33 27 75 -23 108 -128 85 -702 409
-725 409 -15 0 -34 -8 -43 -18z"/>
</g>
</svg>
